<svg xmlns="http://www.w3.org/2000/svg" viewBox="0 0 200 200" width="200" height="200">
  <!--
    manufakt.io "mf" monogram
    Merriweather Black (wght=900) — glyphs converted to paths
    "m" and "f" share their common right/left stem
    Fill: #FAF9F7
  -->
  <g fill="#FAF9F7" transform="translate(7.952,167.574) scale(0.080638,-0.080638)">
    <path d="M88 0V132L193 151V901L75 938V1095L438 1138H449L496 1073L495 974Q540 1020 613.5 1056.0Q687 1092 764.0 1113.5Q841 1135 896 1135Q1005 1135 1071.5 1098.0Q1138 1061 1172 985Q1216 1027 1276.5 1061.0Q1337 1095 1408.0 1115.0Q1479 1135 1551 1135Q1640 1135 1703.0 1110.0Q1766 1085 1805.5 1032.0Q1845 979 1863.5 896.5Q1882 814 1882 698V151L2002 132V0H1458V132L1548 151V689Q1548 784 1534.5 840.5Q1521 897 1487.5 921.5Q1454 946 1394 946Q1359 946 1323.5 934.0Q1288 922 1257.0 904.0Q1226 886 1203 868Q1208 843 1211.0 815.5Q1214 788 1215.0 758.5Q1216 729 1216 697V151L1329 132V0H784V132L882 151V696Q882 789 869.5 843.5Q857 898 825.0 922.0Q793 946 732 946Q671 946 616.5 918.0Q562 890 527 861V151L635 132V0Z"/>
    <path d="M1396 0V132L1548 151V944H1392V1067L1548 1108V1194Q1548 1296 1589.5 1383.5Q1631 1471 1704.5 1537.0Q1778 1603 1873.0 1639.5Q1968 1676 2074 1676Q2131 1676 2163.5 1669.0Q2196 1662 2208 1658L2207 1386Q2177 1410 2124.5 1422.0Q2072 1434 2016 1434Q1964 1434 1933.0 1420.5Q1902 1407 1888.0 1376.0Q1874 1345 1874 1293V1112H2115V944H1874V150L2077 132V0Z"/>
  </g>
</svg>