<svg width="312" height="252" viewBox="0 0 312 252" xmlns="http://www.w3.org/2000/svg">
  <path fill="#1C1C1C" stroke="#1C1C1C" stroke-width="5" stroke-linejoin="round" d="M40.09796893667861 118.23416965352449 26.0 113.93309438470729V95.29510155316606L69.48864994026285 90.03823178016725H70.20549581839904L76.41816009557945 95.05615292712068V103.89725209080048L76.17921146953405 109.39307048984469Q84.54241338112305 101.50776583034647 97.44563918757467 96.01194743130227Q110.34886499402629 90.51612903225808 124.4468339307049 90.51612903225808Q138.78375149342892 90.51612903225808 147.02747909199522 95.65352449223417Q155.2712066905615 100.79091995221027 158.97491039426524 112.0215053763441Q162.67861409796893 123.2520908004779 162.67861409796893 142.6069295101553V208.078853046595L176.05973715651135 209.99044205495818V226.0H111.06571087216248V210.2293906810036L122.77419354838709 208.078853046595V142.84587813620072Q122.77419354838709 131.3763440860215 121.22102747909199 125.0442054958184Q119.66786140979688 118.71206690561529 115.84468339307048 115.84468339307048Q112.02150537634408 112.97729988052569 104.85304659498208 112.97729988052569Q93.86140979689367 112.97729988052569 80.00238948626045 123.2520908004779V208.078853046595L93.14456391875746 210.2293906810036V226.0H26.9557945041816V210.2293906810036L40.09796893667861 208.078853046595Z"/>
  <path fill="#84CC16" stroke="#1C1C1C" stroke-width="5" stroke-linejoin="round" d="M207.6009557945042 113.21624850657109H188.96296296296296V98.40143369175627L207.6009557945042 93.62246117084828V83.58661887694146Q207.6009557945042 67.57706093189964 216.2031063321386 54.43488649940262Q224.805256869773 41.29271206690561 239.26164874551972 33.646356033452804Q253.71804062126643 26.0 270.44444444444446 26.0Q279.28554360812427 26.0 286.4540023894863 28.389486260453992V63.03703703703704Q283.82556750298687 60.16965352449225 276.17921146953404 57.421744324970135Q268.53285543608126 54.67383512544802 261.1254480286738 54.67383512544802Q253.24014336917563 54.67383512544802 249.89486260454004 58.73596176821982Q246.54958183990442 62.798088410991625 246.54958183990442 72.11708482676224V93.38351254480287H275.22341696535244V113.21624850657109H246.54958183990442V208.078853046595L270.68339307048984 210.2293906810036V226.0H189.20191158900838V210.2293906810036L207.6009557945042 208.078853046595Z"/>
</svg>
