<svg width="260" height="260" viewBox="0 0 260 260" xmlns="http://www.w3.org/2000/svg">
  <!-- NexusFlow parent — simplified 3-node favicon icon (light, for dark backgrounds) -->
  <g transform="translate(-68, -42) scale(2)">
    <!-- Connections — hand-drawn L1 style, green stroke -->
    <g transform="translate(100,52) rotate(118.07) scale(0.3611) translate(-10,-40)">
      <path d="M10 40 C40 36, 80 44, 120 38 C160 32, 180 42, 190 40" fill="none" stroke="#FFFFFF" stroke-width="10" stroke-linecap="round"/>
    </g>
    <g transform="translate(100,52) rotate(61.93) scale(0.3611) translate(-10,-40)">
      <path d="M10 40 C50 37, 95 43, 140 39 C170 36, 185 41, 190 40" fill="none" stroke="#FFFFFF" stroke-width="11" stroke-linecap="round"/>
    </g>
    <g transform="translate(48,125) rotate(-1.75) scale(0.5778) translate(-10,-40)">
      <path d="M10 40 C40 36, 80 44, 120 38 C160 32, 180 42, 190 40" fill="none" stroke="#FFFFFF" stroke-width="6" stroke-linecap="round"/>
    </g>
    <!-- Nodes — hand-drawn D, D1, D2 -->
    <g transform="translate(99,50) scale(0.42) translate(-60,-60)">
      <path d="M58 10 C82 7, 110 28, 112 55 C114 82, 96 112, 62 112 C34 112, 8 86, 10 56 C12 30, 36 13, 58 10Z" fill="#FFFFFF" stroke="#FFFFFF" stroke-width="7" stroke-linejoin="round"/>
    </g>
    <g transform="translate(65,120) scale(0.41) translate(-60,-60)">
      <path d="M62 12 C84 10, 106 30, 108 58 C110 82, 94 108, 64 110 C38 112, 12 88, 12 58 C12 32, 38 14, 62 12Z" fill="#FFFFFF" stroke="#FFFFFF" stroke-width="7" stroke-linejoin="round"/>
    </g>
    <g transform="translate(134,119) scale(0.4) translate(-60,-60)">
      <path d="M55 8 C78 4, 112 22, 114 52 C116 78, 102 108, 68 114 C40 118, 10 96, 8 62 C6 34, 28 12, 55 8Z" fill="#FFFFFF" stroke="#FFFFFF" stroke-width="7" stroke-linejoin="round"/>
    </g>
  </g>
</svg>
