<svg width="260" height="260" viewBox="0 0 260 260" xmlns="http://www.w3.org/2000/svg">
  <!-- nxsflow parent — hand-drawn organic mesh icon (dark, for light backgrounds) -->
  <g transform="translate(30, 20)">
    <!-- P1: upper-left → central (L1) -->
    <g transform="translate(68,58) rotate(57.26) scale(0.2774) translate(-10,-40)">
      <path d="M10 40 C40 36, 80 44, 120 38 C160 32, 180 42, 190 40" fill="none" stroke="#1C1C1C" stroke-width="4" stroke-linecap="round"/>
    </g>
    <!-- P2: central → upper-right (L1a) -->
    <g transform="translate(118,100) rotate(-42.14) scale(0.3147) translate(-10,-40)">
      <path d="M10 40 C50 37, 95 43, 140 39 C170 36, 185 41, 190 40" fill="none" stroke="#1C1C1C" stroke-width="4" stroke-linecap="round"/>
    </g>
    <!-- P3: central → lower-left (L6) -->
    <g transform="translate(92,118) rotate(133.60) scale(0.3222) translate(-10,-40)">
      <path d="M10 40 C30 36, 55 44, 80 38 C105 32, 125 46, 150 40 C170 35, 182 43, 190 40" fill="none" stroke="#1C1C1C" stroke-width="3" stroke-linecap="round"/>
      <path d="M12 38 C35 42, 58 34, 82 42 C108 48, 128 36, 148 42 C168 47, 184 37, 188 42" fill="none" stroke="#1C1C1C" stroke-width="1.5" stroke-linecap="round" opacity="0.25"/>
    </g>
    <!-- P4: central → lower-right (L6b) -->
    <g transform="translate(120,118) rotate(43.03) scale(0.3420) translate(-10,-40)">
      <path d="M10 40 C30 35, 55 45, 80 38 C105 31, 125 47, 150 40 C170 34, 182 44, 190 40" fill="none" stroke="#1C1C1C" stroke-width="3" stroke-linecap="round"/>
      <path d="M11 37 C34 42, 58 33, 82 41 C108 49, 128 35, 149 42 C168 48, 184 36, 189 41" fill="none" stroke="#1C1C1C" stroke-width="1.5" stroke-linecap="round" opacity="0.2"/>
      <path d="M10 43 C32 38, 56 47, 79 40 C104 33, 126 48, 151 41 C171 36, 183 45, 190 42" fill="none" stroke="#1C1C1C" stroke-width="1" stroke-linecap="round" opacity="0.15"/>
    </g>
    <!-- N1: Central (D) -->
    <g transform="translate(105,108) scale(0.44) translate(-60,-60)">
      <path d="M58 10 C82 7, 110 28, 112 55 C114 82, 96 112, 62 112 C34 112, 8 86, 10 56 C12 30, 36 13, 58 10Z" fill="#B9FF66" stroke="#1C1C1C" stroke-width="5" stroke-linejoin="round"/>
    </g>
    <!-- N2: Upper left (D1) -->
    <g transform="translate(58,48) scale(0.32) translate(-60,-60)">
      <path d="M62 12 C84 10, 106 30, 108 58 C110 82, 94 108, 64 110 C38 112, 12 88, 12 58 C12 32, 38 14, 62 12Z" fill="#B9FF66" stroke="#1C1C1C" stroke-width="5" stroke-linejoin="round"/>
    </g>
    <!-- N3: Upper right (D2) -->
    <g transform="translate(165,52) scale(0.28) translate(-60,-60)">
      <path d="M55 8 C78 4, 112 22, 114 52 C116 78, 102 108, 68 114 C40 118, 10 96, 8 62 C6 34, 28 12, 55 8Z" fill="#B9FF66" stroke="#1C1C1C" stroke-width="5" stroke-linejoin="round"/>
    </g>
    <!-- N4: Lower left (D3) -->
    <g transform="translate(45,168) scale(0.26) translate(-60,-60)">
      <path d="M56 10 C70 6, 98 14, 110 36 C118 52, 116 78, 104 96 C92 112, 68 116, 48 110 C28 104, 8 84, 8 60 C8 38, 22 18, 40 12 C46 10, 52 10, 56 10Z" fill="#B9FF66" stroke="#1C1C1C" stroke-width="5" stroke-linejoin="round"/>
    </g>
    <!-- N5: Lower right (D) -->
    <g transform="translate(170,165) scale(0.34) translate(-60,-60)">
      <path d="M58 10 C82 7, 110 28, 112 55 C114 82, 96 112, 62 112 C34 112, 8 86, 10 56 C12 30, 36 13, 58 10Z" fill="#B9FF66" stroke="#1C1C1C" stroke-width="5" stroke-linejoin="round"/>
    </g>
  </g>
</svg>
