<svg width="1009" height="252" viewBox="0 0 1009 252" xmlns="http://www.w3.org/2000/svg">
  <path fill="#1C1C1C" stroke="#1C1C1C" stroke-width="5" stroke-linejoin="round" d="M39.91509433962264 117.0377358490566 26.0 112.79245283018868V94.39622641509433L68.9245283018868 89.2075471698113H69.63207547169812L75.76415094339623 94.16037735849056V102.88679245283018L75.52830188679245 108.31132075471697Q83.78301886792454 100.52830188679245 96.51886792452831 95.10377358490567Q109.25471698113208 89.67924528301887 123.16981132075472 89.67924528301887Q137.32075471698113 89.67924528301887 145.45754716981133 94.75Q153.5943396226415 99.82075471698113 157.25 110.90566037735849Q160.9056603773585 121.99056603773585 160.9056603773585 141.09433962264148V205.71698113207546L174.1132075471698 207.60377358490567V223.4056603773585H109.9622641509434V207.83962264150944L121.51886792452831 205.71698113207546V141.33018867924528Q121.51886792452831 130.00943396226415 119.98584905660377 123.75943396226415Q118.45283018867924 117.50943396226414 114.67924528301887 114.67924528301886Q110.9056603773585 111.84905660377358 103.83018867924528 111.84905660377358Q92.9811320754717 111.84905660377358 79.30188679245283 121.99056603773585V205.71698113207546L92.27358490566039 207.83962264150944V223.4056603773585H26.943396226415096V207.83962264150944L39.91509433962264 205.71698113207546Z"/>
  <path fill="#1C1C1C" stroke="#1C1C1C" stroke-width="5" stroke-linejoin="round" d="M231.42452830188677 159.49056603773585 192.9811320754717 109.9622641509434 181.188679245283 107.36792452830188V92.27358490566039H254.77358490566036V107.36792452830188L240.1509433962264 109.9622641509434L256.66037735849056 133.7830188679245L262.55660377358487 143.45283018867923L268.45283018867923 133.54716981132077L285.4339622641509 109.9622641509434L270.33962264150944 107.36792452830188V92.27358490566039H322.4622641509434V107.36792452830188L309.25471698113205 109.9622641509434L273.40566037735846 154.30188679245282L313.5 205.71698113207546L326.2358490566038 208.0754716981132V223.4056603773585H253.12264150943395V208.0754716981132L266.0943396226415 205.71698113207546L250.05660377358487 180.4811320754717L242.9811320754717 170.33962264150944L237.5566037735849 180.4811320754717L220.57547169811318 205.71698113207546L237.79245283018867 208.0754716981132V223.4056603773585H180.00943396226413V208.0754716981132L194.6320754716981 205.71698113207546Z"/>
  <path fill="#1C1C1C" stroke="#1C1C1C" stroke-width="5" stroke-linejoin="round" d="M363.02830188679246 203.83018867924528Q364.6792452830189 206.4245283018868 370.6933962264151 208.54716981132077Q376.70754716981133 210.66981132075472 382.83962264150944 210.66981132075472Q392.50943396226415 210.66981132075472 397.5801886792453 206.54245283018867Q402.6509433962264 202.41509433962264 402.6509433962264 195.81132075471697Q402.6509433962264 188.73584905660377 396.0471698113207 184.1367924528302Q389.4433962264151 179.53773584905662 374.3490566037736 172.93396226415095L365.38679245283015 168.9245283018868Q350.0566037735849 162.08490566037736 342.39150943396226 152.29716981132077Q334.7264150943396 142.50943396226415 334.7264150943396 127.41509433962264Q334.7264150943396 116.56603773584905 341.0943396226415 107.9575471698113Q347.4622641509434 99.34905660377358 359.49056603773585 94.39622641509433Q371.5188679245283 89.44339622641508 387.79245283018867 89.44339622641508Q399.1132075471698 89.44339622641508 407.36792452830184 90.85849056603773Q415.62264150943395 92.27358490566039 424.1132075471698 94.39622641509433Q429.77358490566036 96.04716981132074 432.60377358490564 96.28301886792453V128.35849056603774H411.6132075471698L405.4811320754717 110.19811320754717Q404.3018867924528 108.0754716981132 399.8207547169811 106.3066037735849Q395.33962264150944 104.5377358490566 389.6792452830189 104.5377358490566Q380.7169811320755 104.5377358490566 375.52830188679246 108.42924528301887Q370.33962264150944 112.32075471698113 370.33962264150944 118.92452830188678Q370.33962264150944 126.47169811320754 376.2358490566038 130.83490566037736Q382.1320754716981 135.19811320754718 395.10377358490564 141.09433962264148L400.0566037735849 143.21698113207546Q419.16037735849056 151.23584905660377 430.00943396226415 160.55188679245282Q440.85849056603774 169.8679245283019 440.85849056603774 186.14150943396226Q440.85849056603774 203.5943396226415 426.9433962264151 214.79716981132077Q413.02830188679246 226.0 385.90566037735846 226.0Q373.40566037735846 226.0 363.73584905660374 223.99528301886792Q354.066037735849 221.99056603773585 342.50943396226415 218.68867924528303L334.7264150943396 216.56603773584905V185.19811320754718H357.1320754716981Z"/>
  <path fill="#84CC16" stroke="#1C1C1C" stroke-width="5" stroke-linejoin="round" d="M473.64150943396226 112.08490566037736H455.24528301886795V97.4622641509434L473.64150943396226 92.74528301886792V82.83962264150944Q473.64150943396226 67.03773584905659 482.1320754716981 54.06603773584905Q490.62264150943395 41.09433962264151 504.89150943396226 33.54716981132076Q519.1603773584906 26.0 535.6698113207547 26.0Q544.3962264150944 26.0 551.4716981132076 28.358490566037716V62.5566037735849Q548.877358490566 59.726415094339615 541.3301886792453 57.01415094339622Q533.7830188679245 54.30188679245282 526.4716981132076 54.30188679245282Q518.6886792452831 54.30188679245282 515.3867924528302 58.311320754716974Q512.0849056603773 62.32075471698113 512.0849056603773 71.51886792452831V92.50943396226415H540.3867924528302V112.08490566037736H512.0849056603773V205.71698113207546L535.9056603773585 207.83962264150944V223.4056603773585H455.4811320754717V207.83962264150944L473.64150943396226 205.71698113207546Z"/>
  <path fill="#1C1C1C" stroke="#1C1C1C" stroke-width="5" stroke-linejoin="round" d="M567.7452830188679 53.12264150943395 551.2358490566038 50.0566037735849V35.66981132075472L598.4056603773586 30.009433962264154H599.1132075471698L605.9528301886793 34.96226415094338V205.71698113207546L621.2830188679245 207.83962264150944V223.4056603773585H552.6509433962265V207.83962264150944L567.7452830188679 205.71698113207546Z"/>
  <path fill="#1C1C1C" stroke="#1C1C1C" stroke-width="5" stroke-linejoin="round" d="M703.8301886792452 88.97169811320754Q733.5471698113207 88.97169811320754 750.4103773584905 106.77830188679245Q767.2735849056603 124.58490566037736 767.2735849056603 156.42452830188677Q767.2735849056603 179.77358490566036 758.3113207547169 195.33962264150944Q749.3490566037735 210.9056603773585 734.2547169811321 218.45283018867923Q719.1603773584906 226.0 700.5283018867924 226.0Q671.0471698113207 226.0 654.183962264151 208.19339622641508Q637.3207547169811 190.38679245283018 637.3207547169811 158.54716981132077Q637.3207547169811 135.9056603773585 646.2830188679245 120.22169811320754Q655.2452830188679 104.5377358490566 670.4575471698113 96.75471698113208Q685.6698113207547 88.97169811320754 703.8301886792452 88.97169811320754ZM725.2924528301886 159.25471698113208Q725.2924528301886 131.66037735849056 719.9858490566037 118.57075471698113Q714.6792452830189 105.48113207547169 702.1792452830189 105.48113207547169Q679.066037735849 105.48113207547169 679.066037735849 155.71698113207546Q679.066037735849 183.0754716981132 684.7264150943396 196.2830188679245Q690.3867924528302 209.49056603773585 702.8867924528302 209.49056603773585Q714.2075471698113 209.49056603773585 719.75 197.3443396226415Q725.2924528301886 185.19811320754718 725.2924528301886 159.25471698113208Z"/>
  <path fill="#1C1C1C" stroke="#1C1C1C" stroke-width="5" stroke-linejoin="round" d="M773.877358490566 92.50943396226415H838.5V107.36792452830188L822.6981132075472 109.9622641509434L838.7358490566038 168.68867924528303L843.688679245283 192.0377358490566L847.933962264151 168.68867924528303L868.2169811320755 92.50943396226415H900.0566037735849L923.4056603773585 168.68867924528303L928.3584905660377 191.80188679245282L933.0754716981132 168.68867924528303L947.933962264151 110.19811320754717L930.9528301886792 107.36792452830188V92.50943396226415H982.8396226415094V107.36792452830188L971.5188679245283 109.9622641509434L935.9056603773585 225.29245283018867H905.9528301886792L882.6037735849056 153.12264150943395L877.6509433962264 125.76415094339622L874.1132075471698 153.12264150943395L853.122641509434 225.29245283018867H822.4622641509434L784.9622641509434 109.9622641509434L773.877358490566 107.36792452830188Z"/>
</svg>
