<svg width="260" height="260" viewBox="0 0 260 260" xmlns="http://www.w3.org/2000/svg">
  <defs>
    <clipPath id="nf-clip-n">
      <rect x="-10" y="0" width="123.7" height="300"/>
    </clipPath>
  </defs>
  <g transform="translate(49, 13)">
    <!-- n (full, clipped at f center) — light variant for dark backgrounds -->
    <path fill="#FAF9F7" stroke="#FAF9F7" stroke-width="4" clip-path="url(#nf-clip-n)" d="M8.30 186.80L19.30 184.90L19.30 109.90L7.50 106.20L7.50 90.50L43.80 86.20L44.40 86.20L49.70 90.40L49.70 97.70L49.50 102.40Q53.70 98.40 59.95 94.80Q66.20 91.20 73.80 88.85Q81.40 86.50 89.80 86.50L89.80 86.50Q101.60 86.50 109.10 90.70Q116.60 94.90 120.20 104.35Q123.80 113.80 123.80 129.50L123.80 129.50L123.80 185L135 186.70L135 200L80.60 200L80.60 186.80L90.30 185L90.30 130.40Q90.30 121.10 88.60 115.65Q86.90 110.20 83.20 107.80Q79.50 105.40 73.50 105.40L73.50 105.40Q69.20 105.40 65.30 106.80Q61.40 108.20 58.20 110.20Q55 112.20 52.70 114L52.70 114L52.70 184.90L63.70 186.80L63.70 200L8.30 200L8.30 186.80Z"/>
    <!-- unified f (outlined, filled with lime) — light variant -->
    <path fill="#B9FF66" stroke="#FAF9F7" stroke-width="4" d="M73.8,88.85c4.67315,-1.44499 9.57315,-2.22359 14.7,-2.33582v-5.91418c0,-6.8 1.38333,-13.11667 4.15,-18.95c2.76667,-5.83333 6.6,-10.95 11.5,-15.35c4.9,-4.4 10.51667,-7.81667 16.85,-10.25c6.33333,-2.43333 13.03333,-3.65 20.1,-3.65c3.8,0 6.78333,0.23333 8.95,0.7c2.16667,0.46667 3.65,0.83333 4.45,1.1l-0.1,27.2c-2,-1.6 -4.75,-2.8 -8.25,-3.6c-3.5,-0.8 -7.11667,-1.2 -10.85,-1.2c-3.46667,0 -6.23333,0.45 -8.3,1.35c-2.06667,0.9 -3.56667,2.38333 -4.5,4.45c-0.93333,2.06667 -1.4,4.83333 -1.4,8.3v18.1h24.1v16.8h-24.1v79.4l20.3,1.8v13.2h-60.8v-13.2l9.7,-1.8v-54.6c0,-6.2 -0.56667,-11.11667 -1.7,-14.75c-1.13333,-3.63333 -2.93333,-6.25 -5.4,-7.85c-2.46667,-1.6 -5.7,-2.4 -9.7,-2.4c-0.20065,0 -0.40065,0.00229 -0.6,0.00686v-16.27266c0.29841,-0.09621 0.59841,-0.19094 0.9,-0.2842z"/>
  </g>
</svg>
