<svg width="260" height="260" viewBox="0 0 260 260" xmlns="http://www.w3.org/2000/svg">
  <defs>
    <clipPath id="mf-clip-m">
      <rect x="-10" y="0" width="188.9" height="300"/>
    </clipPath>
  </defs>
  <g transform="translate(17, 13)">
    <!-- m (full, clipped at f center) — light variant for dark backgrounds -->
    <path fill="#FAF9F7" stroke="#FAF9F7" stroke-width="4" clip-path="url(#mf-clip-m)" d="M63.50 200L8.80 200L8.80 186.80L19.30 184.90L19.30 109.90L7.50 106.20L7.50 90.50L43.80 86.20L44.90 86.20L49.60 92.70L49.50 102.60Q54 98 61.35 94.40Q68.70 90.80 76.40 88.65Q84.10 86.50 89.60 86.50L89.60 86.50Q100.50 86.50 107.15 90.20Q113.80 93.90 117.20 101.50L117.20 101.50Q121.60 97.30 127.65 93.90Q133.70 90.50 140.80 88.50Q147.90 86.50 155.10 86.50L155.10 86.50Q164 86.50 170.30 89Q176.60 91.50 180.55 96.80Q184.50 102.10 186.35 110.35Q188.20 118.60 188.20 130.20L188.20 130.20L188.20 184.90L200.20 186.80L200.20 200L145.80 200L145.80 186.80L154.80 184.90L154.80 131.10Q154.80 121.60 153.45 115.95Q152.10 110.30 148.75 107.85Q145.40 105.40 139.40 105.40L139.40 105.40Q135.90 105.40 132.35 106.60Q128.80 107.80 125.70 109.60Q122.60 111.40 120.30 113.20L120.30 113.20Q120.80 115.70 121.10 118.45Q121.40 121.20 121.50 124.15Q121.60 127.10 121.60 130.30L121.60 130.30L121.60 184.90L132.90 186.80L132.90 200L78.40 200L78.40 186.80L88.20 184.90L88.20 130.40Q88.20 121.10 86.95 115.65Q85.70 110.20 82.50 107.80Q79.30 105.40 73.20 105.40L73.20 105.40Q67.10 105.40 61.65 108.20Q56.20 111 52.70 113.90L52.70 113.90L52.70 184.90L63.50 186.80L63.50 200Z"/>
    <!-- unified f (outlined, filled with graphite) — light variant -->
    <path fill="#1C1C1C" stroke="#FAF9F7" stroke-width="4" d="M140.8,88.5c4.27284,-1.20362 8.57284,-1.86397 12.9,-1.98107v-5.91893c0,-6.8 1.38333,-13.11667 4.15,-18.95c2.76667,-5.83333 6.6,-10.95 11.5,-15.35c4.9,-4.4 10.51667,-7.81667 16.85,-10.25c6.33333,-2.43333 13.03333,-3.65 20.1,-3.65c3.8,0 6.78333,0.23333 8.95,0.7c2.16667,0.46667 3.65,0.83333 4.45,1.1l-0.1,27.2c-2,-1.6 -4.75,-2.8 -8.25,-3.6c-3.5,-0.8 -7.11667,-1.2 -10.85,-1.2c-3.46667,0 -6.23333,0.45 -8.3,1.35c-2.06667,0.9 -3.56667,2.38333 -4.5,4.45c-0.93333,2.06667 -1.4,4.83333 -1.4,8.3v18.1h24.1v16.8h-24.1v79.4l20.3,1.8v13.2h-60.8v-13.2l9,-1.9v-53.8c0,-6.33333 -0.45,-11.38333 -1.35,-15.15c-0.9,-3.76667 -2.46667,-6.46667 -4.7,-8.1c-2.23333,-1.63333 -5.35,-2.45 -9.35,-2.45c-0.43276,0 -0.86609,0.01376 -1.3,0.04128l0,-16.11762c0.88698,-0.29192 1.78698,-0.56647 2.7,-0.82366z"/>
  </g>
</svg>
