<svg xmlns="http://www.w3.org/2000/svg" viewBox="0 0 265 265" width="265" height="265"> 
    <path class="st0" d="M 74.89090909090906 261.59090909090907 h 54.6 c 58.2 0 105.4 -47.2 105.4 -105.4 v -24.7 l -47 0 l -113.00000000000006 130.09999999999997 z " style="fill:#6a6969">
    </path>
    <path class="st1" d="M 234.990909090909 156.19090909090912 v -108.60000000000002 c 0 -23.4 -19 -42.4 -42.4 -42.4 l -47.3 126.2 h 42.7 h 2.3 c 18.100000000000023 0.0999999999999659 35 9.399999999999977 44.69999999999999 24.80000000000001 l 0 0 z " style="fill:#7ff2f2">
    </path>
    <path class="st2" d="M 192.59090909090904 5.190909090909113 h -54.6 c -58.2 0 -105.4 47.2 -105.4 105.4 l 0 24.7 h 47 l 113.00000000000003 -130.09999999999997 z " style="fill:#6a6969">
    </path>
    <path class="st3" d="M 32.490909090909106 110.69090909090912 l 0 108.6 c 0 23.4 19 42.4 42.4 42.4 l 47.3 -126.2 h -42.7 h -2.3 c -18.200000000000017 -0.10000000000002274 -35.10000000000002 -9.400000000000034 -44.70000000000002 -24.80000000000001 l 0 0 z " style="fill: #b9ff66">
    </path>
    <path class="st4" d="M 32.490909090909106 110.69090909090912 c 9.7 15.4 26.5 24.7 44.7 24.7 h 2.3 l 11.3 -13 c -5.684341886080802e-14 0 -29.500000000000057 6 -58.30000000000004 -11.699999999999989 z " style="fill: #2d2d2d">
    </path>
    <path class="st5" d="M 234.990909090909 156.19090909090912 c -9.7 -15.4 -26.5 -24.7 -44.7 -24.7 h -2.3 l -11.3 13 c 5.684341886080802e-14 -5.684341886080802e-14 29.400000000000034 -6.100000000000023 58.30000000000001 11.699999999999989 z " style="fill:#2d2d2d">
    </path>
    <polygon class="st6" points="193,5 145,131 188,131 75,261 122,135 79,135" style="fill: #ffffff">
    </polygon>
</svg>