<svg xmlns="http://www.w3.org/2000/svg" viewBox="70 76 438 424"> <svg xmlns="http://www.w3.org/2000/svg" xmlns:xlink="http://www.w3.org/1999/xlink" version="1.1" id="Livello_1" x="0" y="0" viewBox="118 225 123 123" xml:space="preserve" height="200" width="200" preserveAspectRatio="xMinYMin" enable-background="new 0 0 595.3 841.9" style="overflow: visible"><path class="st0" d="M 238.8 530.5 h 54.6 c 58.2 0 105.4 -47.2 105.4 -105.4 v -24.7 l -47 0 L 238.8 530.5 z" style="fill:#6a6969"></path><path class="st1" d="M 398.9 425.1 V 316.5 c 0 -23.4 -19 -42.4 -42.4 -42.4 l -47.3 126.2 h 42.7 h 2.3 C 372.3 400.4 389.2 409.7 398.9 425.1 L 398.9 425.1 z" style="fill:#7ff2f2"></path><path class="st2" d="M 356.5 274.1 h -54.6 c -58.2 0 -105.4 47.2 -105.4 105.4 l 0 24.7 h 47 L 356.5 274.1 z" style="fill:#6a6969"></path><path class="st3" d="M 196.4 379.6 l 0 108.6 c 0 23.4 19 42.4 42.4 42.4 l 47.3 -126.2 h -42.7 h -2.3 C 222.9 404.3 206 395 196.4 379.6 L 196.4 379.6 z" style="fill: #b9ff66"></path><path class="st4" d="M 196.4 379.6 c 9.7 15.4 26.5 24.7 44.7 24.7 h 2.3 l 11.3 -13 C 254.7 391.3 225.2 397.3 196.4 379.6 z" style="fill: #2d2d2d"></path><path class="st5" d="M 398.9 425.1 c -9.7 -15.4 -26.5 -24.7 -44.7 -24.7 h -2.3 l -11.3 13 C 340.6 413.4 370 407.3 398.9 425.1 z" style="fill:#2d2d2d"></path><polygon class="st6" points="356.5,274.1 309.1,400.4 351.9,400.4 238.8,530.5 286.1,404.3 243.4,404.3" style="fill: #ffffff"></polygon></svg> <svg y="412" viewBox="1.5099999904632568 6.150000095367432 237.86000061035156 17.43000030517578" x="168.6" height="17.4" width="237.9" style="overflow: visible">
        </svg></svg>