<svg xmlns="http://www.w3.org/2000/svg" viewBox="0 0 200 200" width="200" height="200">
  <!--
    Merged "nf" monogram — bold serif — #B9FF66 (lime) on transparent background.

    Design: lowercase bold serif "n" and "f" share one vertical stem.
    The shared stem is the right arm of "n" and the main stroke of "f".
    "f" contributes: a curved top ascender and a horizontal crossbar.
    "n" contributes: a left stem with serifs and a rounded arch.

    Grid (200×200 viewBox, glyph centred at x=100):
      Glyph bbox: x 43–157, y 44–170  → center x=100 ✓
      Stem width: 14px
      Serif overhang: 8px each side beyond stem
      Serif bracket height: 7px

      Key x-positions:
        x_Lout = 43   outer left of left stem
        x_Lin  = 57   inner left of left stem
        x_Sout = 109  outer left of shared stem
        x_Sin  = 123  outer right of shared stem

      Key y-positions:
        y_asc  = 44   top of f ascender
        y_nTop = 90   x-height (top of "n" arch)
        y_crs  = 112  centre of f crossbar
        y_base = 170  baseline
  -->

  <g fill="#B9FF66">

    <!-- ══════════════════════════════════════════
         1. LEFT STEM of "n"
            Body: x 43–57, y 90–159
            Base serif: x 35–65, y 159–170  (bracket)
            Top  serif: x 35–65, y 79–90    (bracket)
    ══════════════════════════════════════════ -->

    <!-- Stem + base serif + top serif as one connected path -->
    <path d="
      M 35,170
      L 35,163
      Q 35,161 37,160
      Q 40,158 43,158
      L 43,91
      Q 40,90  37,88
      Q 35,87  35,85
      L 35,79
      L 65,79
      L 65,85
      Q 65,87  63,88
      Q 60,90  57,91
      L 57,158
      Q 60,158  63,160
      Q 65,161  65,163
      L 65,170
      Z
    "/>

    <!-- ══════════════════════════════════════════
         2. ARCH of "n"
            Bold rounded arch from top of left stem
            to top of shared stem.
            Outer arc apex ≈ (81, 44)
            Inner arc apex ≈ (81, 58)
    ══════════════════════════════════════════ -->

    <path d="
      M 43,90
      Q 81,36 109,90
      L 109,104
      Q 81,54  57,104
      L 57,90
      Z
    "/>

    <!-- ══════════════════════════════════════════
         3. SHARED STEM  (right arm of n = stem of f)
            x: 109–123, y: 44–159 (body)
            Base serif: x 101–131, y 159–170
            (Top is finished by the f-curve — no flat top serif)
    ══════════════════════════════════════════ -->

    <!-- Stem body -->
    <rect x="109" y="44" width="14" height="115"/>

    <!-- Base serif of shared stem -->
    <path d="
      M 101,170
      L 101,163
      Q 101,161  103,160
      Q 106,158  109,158
      L 123,158
      Q 126,158  129,160
      Q 131,161  131,163
      L 131,170
      Z
    "/>

    <!-- ══════════════════════════════════════════
         4. "f" CURVED TOP / ASCENDER
            Hooks right from the top of the shared stem.
            Outer curve: (109,60) → (147,54) → (123,82)
            Inner curve: (123,44) → (140,62) → (123,82)
    ══════════════════════════════════════════ -->

    <path d="
      M 109,62
      Q 108,38  125,36
      Q 139,34  147,48
      Q 157,62  149,78
      Q 143,92  123,96
      L 123,82
      Q 137,78  141,68
      Q 147,56  139,48
      Q 133,40  125,42
      Q 115,44  115,62
      Z
    "/>

    <!-- ══════════════════════════════════════════
         5. "f" CROSSBAR
            Centre y ≈ 112, height 12px → y 106–118
            Left half:  x 91–109   (right edge meets stem)
            Right half: x 123–153  (left edge meets stem)
            The shared stem (109–123) is already solid.
            Left end has a square / slightly rounded terminus.
            Right end same.
    ══════════════════════════════════════════ -->

    <!-- left crossbar arm -->
    <path d="
      M 91,106
      Q 89,106  89,108
      L 89,118
      Q 89,120  91,120
      L 109,120
      L 109,106
      Z
    "/>

    <!-- right crossbar arm -->
    <path d="
      M 123,106
      L 123,120
      L 153,120
      Q 155,120  155,118
      L 155,108
      Q 155,106  153,106
      Z
    "/>

  </g>
</svg>
