<svg width="260" height="260" viewBox="0 0 260 260" xmlns="http://www.w3.org/2000/svg">
  <defs>
    <clipPath id="db-clip-d"><rect x="-50.00" y="95.00" width="158.51" height="215.00"/></clipPath>
  </defs>
  <!-- d (base, clipped) -->
  <path fill="#1C1C1C" stroke="#1C1C1C" stroke-width="4.0" stroke-linejoin="round" clip-path="url(#db-clip-d)" d="M74.68014484007242 235.0Q65.42848521424261 235.0 56.62039831019916 231.32468316234156Q47.8123114061557 227.64936632468314 40.715147857573925 220.10863005431503Q33.617984308992156 212.5678937839469 29.43572721786361 201.16173808086904Q25.253470126735067 189.75558237779117 25.253470126735067 174.2939046469523Q25.253470126735067 147.42607121303558 34.18829209414605 131.14061557030777Q43.12311406155703 114.85515992757995 57.38080869040435 107.44115872057935Q71.63850331925167 100.02715751357874 87.3536511768256 100.02715751357874Q94.45081472540737 100.02715751357874 100.72420036210019 101.67471333735665Q106.997585998793 103.32226916113456 109.7857573928787 105.73023536511768V44.13699456849727L91.91611345805673 40.715147857573925V37.03983101991551L141.59625829812916 25.0H149.20036210018105L152.1152685576343 28.295111647555814V224.73445986722993H162.50754375377187V230.56427278213638Q158.45202172601086 231.4514182257091 148.82015691007845 232.97223898611946Q139.18829209414605 234.49305974652987 129.4296922148461 234.49305974652987Q122.07905853952927 234.49305974652987 116.18587809293905 232.71876885938443Q110.29269764634883 230.94447797223899 110.29269764634883 223.59384429692213V213.70850935425466Q108.26493663246832 219.031382015691 103.38563669281835 223.91068195534098Q98.50633675316838 228.78998189499094 91.21907060953531 231.89499094749547Q83.93180446590223 235.0 74.68014484007242 235.0ZM94.07060953530477 217.63729631864814Q97.99939649969825 217.63729631864814 101.10440555220278 216.36994568497283Q104.2094146047073 215.1025950512975 106.42727821363911 213.01146650573324Q108.6451418225709 210.92033796016898 109.7857573928787 208.6391068195534V117.64333132166566Q107.63126131563065 112.82739891369944 103.6391068195534 110.41943270971635Q99.64695232347616 108.01146650573324 94.70428485214242 108.01146650573324Q86.2130356065178 108.01146650573324 81.3971031985516 114.79179239589618Q76.58117079058539 121.57211828605914 74.55340977670488 134.8159324079662Q72.52564876282437 148.05974652987325 72.52564876282437 167.70368135184066Q72.52564876282437 187.3476161738081 75.56729028364514 198.2468316234158Q78.6089318044659 209.1460470730235 83.48823174411586 213.39167169583584Q88.36753168376585 217.63729631864814 94.07060953530477 217.63729631864814Z"/>
  <!-- b (ember-red highlight, complete, on top) -->
  <path fill="#DC2626" stroke="#1C1C1C" stroke-width="4.0" stroke-linejoin="round" d="M95.71816535908268 44.51719975859987V39.57453228726612L140.07543753771876 25.0H144.89136994568497L151.73506336753167 30.576342788171388V118.91068195534096Q153.002414001207 115.36210018105008 157.94508147254072 110.8630054315027Q162.88774894387447 106.36391068195533 170.30175015087508 103.0687990343995Q177.71575135787566 99.77368738684368 185.95353047676525 99.77368738684368Q202.42908871454435 99.77368738684368 213.26493663246833 107.12432106216052Q224.1007845503923 114.47495473747736 229.4236572118286 127.84550392275194Q234.74652987326493 141.21605310802653 234.74652987326493 159.33916716958356Q234.74652987326493 178.09595654797826 229.6137598068799 192.22691611345806Q224.48098974049486 206.35787567893783 215.6729028364514 215.8630054315027Q206.86481593240796 225.36813518406757 195.77549788774894 230.12070006035003Q184.68617984308992 234.87326493663247 172.77308388654194 234.87326493663247Q152.6222088111044 234.87326493663247 139.31502715751358 232.9722389861195Q126.00784550392275 231.07121303560652 118.78394689197344 228.7266143633072Q111.56004828002413 226.38201569100784 109.7857573928787 225.24140012070004V50.47374773687386ZM167.32347616173809 116.88292094146045Q162.00060350030174 116.88292094146045 158.8955944477972 118.72057936028966Q155.79058539529268 120.55823777911888 154.20639710319853 122.71273385636692Q152.6222088111044 124.86722993361495 151.73506336753167 126.00784550392274V217.76403138201567Q153.8895594447797 222.45322872661436 159.14906457453228 224.92456246228122Q164.40856970428484 227.39589619794808 169.09776704888353 227.39589619794808Q176.44840072420035 227.39589619794808 180.82076041038022 220.55220277610135Q185.19312009656005 213.70850935425466 187.09414604707302 200.02112251056124Q188.995171997586 186.33373566686782 188.995171997586 165.92939046469522Q188.995171997586 146.79239589619795 185.95353047676525 136.14665057332527Q182.91188895594448 125.50090525045262 177.96922148461073 121.19191309595654Q173.026554013277 116.88292094146045 167.32347616173809 116.88292094146045Z"/>
</svg>
