
            <svg xmlns="http://www.w3.org/2000/svg">
                <filter id="grayscale">
                    <feColorMatrix type="saturate" values="0"/>
                </filter>
                <g filter="url(#grayscale)">
                    <svg xmlns="http://www.w3.org/2000/svg" viewBox="68.6900067138672 75.53550775146485 437.6199951171875 423.9290003051758"> <svg xmlns="http://www.w3.org/2000/svg" xmlns:xlink="http://www.w3.org/1999/xlink" version="1.1" id="Livello_1" x="213.29001525878905" y="145.53550775146485" viewBox="196.39999389648438 274.1000061035156 202.5 256.5000305175781" xml:space="preserve" height="187.99899291992188" width="148.42023011709452" preserveAspectRatio="xMinYMin" enable-background="new 0 0 595.3 841.9" style="overflow: visible;"><path class="st0" d="M238.8,530.5h54.6c58.2,0,105.4-47.2,105.4-105.4v-24.7l-47,0L238.8,530.5z" style="fill: #62ACF8;"></path><path class="st1" d="M398.9,425.1V316.5c0-23.4-19-42.4-42.4-42.4l-47.3,126.2h42.7h2.3C372.3,400.4,389.2,409.7,398.9,425.1    L398.9,425.1z" style="fill: #89EBF6;"></path><path class="st2" d="M356.5,274.1h-54.6c-58.2,0-105.4,47.2-105.4,105.4l0,24.7h47L356.5,274.1z" style="fill: #E69400;"></path><path class="st3" d="M196.4,379.6l0,108.6c0,23.4,19,42.4,42.4,42.4l47.3-126.2h-42.7h-2.3C222.9,404.3,206,395,196.4,379.6   L196.4,379.6z" style="fill: #F7CD00;"></path><path class="st4" d="M196.4,379.6c9.7,15.4,26.5,24.7,44.7,24.7h2.3l11.3-13C254.7,391.3,225.2,397.3,196.4,379.6z" style="fill: #D56900;"></path><path class="st5" d="M398.9,425.1c-9.7-15.4-26.5-24.7-44.7-24.7h-2.3l-11.3,13C340.6,413.4,370,407.3,398.9,425.1z" style="fill: #3E8CF8;"></path><polygon class="st6" points="356.5,274.1 309.1,400.4 351.9,400.4 238.8,530.5 286.1,404.3 243.4,404.3 " style="fill: #FFFFFF;"></polygon></svg> <svg y="412.03450775146484" viewBox="1.5099999904632568 6.150000095367432 237.86000061035156 17.43000030517578" x="168.57001708984376" height="17.43000030517578" width="237.86000061035156" style="overflow: visible;"><g fill="#62ACF8" fill-opacity="1" style=""><path d="M5.80 23.32L1.51 23.32L1.51 6.96L9.54 6.96Q12.37 6.96 13.81 8.34Q15.25 9.72 15.25 12.09L15.25 12.09Q15.25 14.44 13.81 15.83Q12.37 17.22 9.54 17.22L9.54 17.22L5.80 17.22L5.80 23.32ZM5.80 10.23L5.80 13.92L8.98 13.92Q10.07 13.92 10.61 13.45Q11.14 12.97 11.14 12.09L11.14 12.09Q11.14 11.21 10.61 10.72Q10.07 10.23 8.98 10.23L8.98 10.23L5.80 10.23ZM21.28 23.32L17.15 23.32L17.15 6.24L21.28 6.24L21.28 23.32ZM28.48 23.58L28.48 23.58Q26.94 23.58 25.78 22.85Q24.62 22.12 23.96 20.73Q23.30 19.33 23.30 17.43L23.30 17.43Q23.30 15.50 23.96 14.12Q24.62 12.74 25.78 12.01Q26.94 11.28 28.48 11.28L28.48 11.28Q29.85 11.28 30.95 11.93Q32.05 12.58 32.40 13.62L32.40 13.62L32.17 13.62L32.42 11.53L36.39 11.53Q36.32 12.32 36.26 13.14Q36.20 13.95 36.20 14.74L36.20 14.74L36.20 23.32L32.12 23.32L32.07 21.33L32.35 21.33Q32.00 22.35 30.90 22.96Q29.80 23.58 28.48 23.58ZM29.80 20.52L29.80 20.52Q30.84 20.52 31.49 19.79Q32.14 19.05 32.14 17.43L32.14 17.43Q32.14 15.80 31.49 15.07Q30.84 14.34 29.80 14.34L29.80 14.34Q28.76 14.34 28.11 15.07Q27.46 15.80 27.46 17.43L27.46 17.43Q27.46 19.05 28.09 19.79Q28.73 20.52 29.80 20.52ZM42.91 23.32L38.78 23.32L38.78 14.74Q38.78 13.95 38.73 13.14Q38.69 12.32 38.60 11.53L38.60 11.53L42.59 11.53L42.82 13.58L42.56 13.58Q43.14 12.46 44.21 11.87Q45.28 11.28 46.63 11.28L46.63 11.28Q48.69 11.28 49.72 12.50Q50.76 13.72 50.76 16.29L50.76 16.29L50.76 23.32L46.63 23.32L46.63 16.48Q46.63 15.34 46.23 14.89Q45.84 14.44 45.09 14.44L45.09 14.44Q44.12 14.44 43.52 15.07Q42.91 15.71 42.91 16.76L42.91 16.76L42.91 23.32ZM57.25 23.32L52.96 23.32L52.96 19.10L57.25 19.10L57.25 23.32ZM72.22 23.58L72.22 23.58Q70.27 23.58 68.81 22.84Q67.35 22.09 66.54 20.71Q65.73 19.33 65.73 17.41L65.73 17.41Q65.73 15.48 66.54 14.11Q67.35 12.74 68.81 12.01Q70.27 11.28 72.22 11.28L72.22 11.28Q73.43 11.28 74.59 11.60Q75.75 11.93 76.47 12.53L76.47 12.53L75.31 15.34Q74.75 14.88 74.05 14.63Q73.34 14.39 72.67 14.39L72.67 14.39Q71.39 14.39 70.68 15.16Q69.97 15.92 69.97 17.41L69.97 17.41Q69.97 18.89 70.68 19.67Q71.39 20.45 72.67 20.45L72.67 20.45Q73.32 20.45 74.03 20.20Q74.75 19.96 75.31 19.52L75.31 19.52L76.47 22.33Q75.73 22.91 74.58 23.24Q73.43 23.58 72.22 23.58ZM83.85 23.58L83.85 23.58Q81.88 23.58 80.44 22.84Q79.00 22.09 78.21 20.71Q77.42 19.33 77.42 17.43L77.42 17.43Q77.42 15.50 78.21 14.13Q79.00 12.76 80.44 12.02Q81.88 11.28 83.85 11.28L83.85 11.28Q85.80 11.28 87.24 12.02Q88.68 12.76 89.47 14.15Q90.26 15.53 90.26 17.43L90.26 17.43Q90.26 19.31 89.47 20.70Q88.68 22.09 87.24 22.84Q85.80 23.58 83.85 23.58ZM83.85 20.52L83.85 20.52Q84.87 20.52 85.48 19.79Q86.08 19.05 86.08 17.43L86.08 17.43Q86.08 15.80 85.48 15.07Q84.87 14.34 83.85 14.34L83.85 14.34Q82.81 14.34 82.20 15.07Q81.60 15.80 81.60 17.43L81.60 17.43Q81.60 19.05 82.20 19.79Q82.81 20.52 83.85 20.52ZM96.41 23.32L92.28 23.32L92.28 14.74Q92.28 13.95 92.23 13.14Q92.18 12.32 92.09 11.53L92.09 11.53L96.08 11.53L96.31 13.58L96.06 13.58Q96.64 12.46 97.71 11.87Q98.77 11.28 100.12 11.28L100.12 11.28Q102.19 11.28 103.22 12.50Q104.25 13.72 104.25 16.29L104.25 16.29L104.25 23.32L100.12 23.32L100.12 16.48Q100.12 15.34 99.73 14.89Q99.33 14.44 98.59 14.44L98.59 14.44Q97.61 14.44 97.01 15.07Q96.41 15.71 96.41 16.76L96.41 16.76L96.41 23.32ZM110.87 23.32L106.74 23.32L106.74 14.74Q106.74 13.95 106.69 13.14Q106.64 12.32 106.55 11.53L106.55 11.53L110.54 11.53L110.77 13.58L110.52 13.58Q111.10 12.46 112.17 11.87Q113.23 11.28 114.58 11.28L114.58 11.28Q116.65 11.28 117.68 12.50Q118.71 13.72 118.71 16.29L118.71 16.29L118.71 23.32L114.58 23.32L114.58 16.48Q114.58 15.34 114.18 14.89Q113.79 14.44 113.05 14.44L113.05 14.44Q112.07 14.44 111.47 15.07Q110.87 15.71 110.87 16.76L110.87 16.76L110.87 23.32ZM127.41 23.58L127.41 23.58Q124.21 23.58 122.44 21.93Q120.66 20.28 120.66 17.41L120.66 17.41Q120.66 15.62 121.40 14.23Q122.15 12.83 123.49 12.06Q124.84 11.28 126.65 11.28L126.65 11.28Q128.43 11.28 129.63 12.06Q130.83 12.83 131.43 14.19Q132.03 15.55 132.03 17.34L132.03 17.34L132.03 18.22L124.12 18.22L124.12 16.27L128.99 16.27L128.60 16.59Q128.60 15.27 128.10 14.63Q127.60 13.99 126.69 13.99L126.69 13.99Q125.65 13.99 125.10 14.77Q124.56 15.55 124.56 17.10L124.56 17.10L124.56 17.52Q124.56 19.08 125.32 19.80Q126.09 20.52 127.53 20.52L127.53 20.52Q128.46 20.52 129.28 20.31Q130.11 20.10 130.85 19.63L130.85 19.63L131.92 22.33Q131.03 22.93 129.87 23.25Q128.71 23.58 127.41 23.58ZM139.97 23.58L139.97 23.58Q138.02 23.58 136.56 22.84Q135.10 22.09 134.28 20.71Q133.47 19.33 133.47 17.41L133.47 17.41Q133.47 15.48 134.28 14.11Q135.10 12.74 136.56 12.01Q138.02 11.28 139.97 11.28L139.97 11.28Q141.18 11.28 142.34 11.60Q143.50 11.93 144.22 12.53L144.22 12.53L143.06 15.34Q142.50 14.88 141.79 14.63Q141.08 14.39 140.41 14.39L140.41 14.39Q139.13 14.39 138.43 15.16Q137.72 15.92 137.72 17.41L137.72 17.41Q137.72 18.89 138.43 19.67Q139.13 20.45 140.41 20.45L140.41 20.45Q141.06 20.45 141.78 20.20Q142.50 19.96 143.06 19.52L143.06 19.52L144.22 22.33Q143.47 22.91 142.33 23.24Q141.18 23.58 139.97 23.58ZM152.06 23.58L152.06 23.58Q149.55 23.58 148.29 22.38Q147.02 21.19 147.02 18.75L147.02 18.75L147.02 14.57L144.82 14.57L144.82 11.53L147.02 11.53L147.02 8.75L151.16 7.77L151.16 11.53L154.03 11.53L154.03 14.57L151.16 14.57L151.16 18.59Q151.16 19.61 151.62 19.95Q152.08 20.28 152.73 20.28L152.73 20.28Q153.13 20.28 153.42 20.23Q153.71 20.17 154.03 20.05L154.03 20.05L154.03 23.23Q153.52 23.44 153.02 23.51Q152.53 23.58 152.06 23.58ZM160.16 23.32L155.87 23.32L155.87 19.10L160.16 19.10L160.16 23.32ZM175.20 23.58L175.20 23.58Q172.69 23.58 171.43 22.38Q170.16 21.19 170.16 18.75L170.16 18.75L170.16 14.57L167.96 14.57L167.96 11.53L170.16 11.53L170.16 8.75L174.29 7.77L174.29 11.53L177.17 11.53L177.17 14.57L174.29 14.57L174.29 18.59Q174.29 19.61 174.76 19.95Q175.22 20.28 175.87 20.28L175.87 20.28Q176.27 20.28 176.56 20.23Q176.85 20.17 177.17 20.05L177.17 20.05L177.17 23.23Q176.66 23.44 176.16 23.51Q175.66 23.58 175.20 23.58ZM182.90 23.32L178.77 23.32L178.77 6.24L182.90 6.24L182.90 13.60L182.56 13.60Q183.14 12.46 184.20 11.87Q185.27 11.28 186.64 11.28L186.64 11.28Q188.71 11.28 189.73 12.51Q190.75 13.74 190.75 16.25L190.75 16.25L190.75 23.32L186.62 23.32L186.62 16.43Q186.62 15.36 186.24 14.90Q185.85 14.44 185.09 14.44L185.09 14.44Q184.09 14.44 183.50 15.06Q182.90 15.69 182.90 16.71L182.90 16.71L182.90 23.32ZM197.41 23.32L193.23 23.32L193.23 14.76Q193.23 13.95 193.19 13.14Q193.14 12.32 193.05 11.53L193.05 11.53L197.04 11.53L197.48 15.16L196.85 15.16Q197.09 13.83 197.60 12.97Q198.11 12.11 198.87 11.70Q199.64 11.28 200.68 11.28L200.68 11.28Q201.17 11.28 201.41 11.31Q201.66 11.35 201.94 11.46L201.94 11.46L201.94 15.09Q201.36 14.83 201.01 14.76Q200.66 14.69 200.10 14.69L200.10 14.69Q199.15 14.69 198.55 15.03Q197.94 15.36 197.68 16.06Q197.41 16.76 197.41 17.85L197.41 17.85L197.41 23.32ZM207.32 23.32L203.19 23.32L203.19 11.53L207.32 11.53L207.32 23.32ZM207.44 9.86L203.10 9.86L203.10 6.15L207.44 6.15L207.44 9.86ZM216.79 23.32L213.31 23.32L208.18 11.53L212.52 11.53L215.56 19.38L214.72 19.38L217.90 11.53L221.96 11.53L216.79 23.32ZM228.76 23.58L228.76 23.58Q225.56 23.58 223.79 21.93Q222.01 20.28 222.01 17.41L222.01 17.41Q222.01 15.62 222.75 14.23Q223.50 12.83 224.84 12.06Q226.19 11.28 228.00 11.28L228.00 11.28Q229.79 11.28 230.98 12.06Q232.18 12.83 232.78 14.19Q233.38 15.55 233.38 17.34L233.38 17.34L233.38 18.22L225.47 18.22L225.47 16.27L230.34 16.27L229.95 16.59Q229.95 15.27 229.45 14.63Q228.95 13.99 228.04 13.99L228.04 13.99Q227.00 13.99 226.46 14.77Q225.91 15.55 225.91 17.10L225.91 17.10L225.91 17.52Q225.91 19.08 226.68 19.80Q227.44 20.52 228.88 20.52L228.88 20.52Q229.81 20.52 230.63 20.31Q231.46 20.10 232.20 19.63L232.20 19.63L233.27 22.33Q232.38 22.93 231.22 23.25Q230.06 23.58 228.76 23.58ZM239.37 23.32L235.08 23.32L235.08 19.10L239.37 19.10L239.37 23.32Z" transform="translate(0, 0)"></path></g></svg> <svg y="360.03450775146484" viewBox="3.809999942779541 16.940000534057617 297.6199951171875 42.61000061035156" x="138.6900067138672" height="42.61000061035156" width="297.6199951171875" style="overflow: visible;"><g fill="#000" style=""><path d="M13.95 58.90L3.81 58.90L3.81 17.58L11.78 17.58L32.70 43.55L31.00 43.55L31.00 17.58L41.03 17.58L41.03 58.90L33.06 58.90L12.25 32.94L13.95 32.94L13.95 58.90ZM55.74 58.90L43.20 58.90L60.78 35.64L60.78 40.50L43.55 17.58L56.15 17.58L66.82 32.65L63.36 32.65L74.03 17.58L86.68 17.58L69.39 40.50L69.39 35.64L87.10 58.90L74.44 58.90L63.36 43.49L66.82 43.49L55.74 58.90ZM104.21 59.55L104.21 59.55Q99.23 59.55 94.74 58.35Q90.26 57.15 87.21 55.09L87.21 55.09L90.26 46.71Q92.19 47.94 94.48 48.82Q96.77 49.70 99.26 50.20Q101.75 50.70 104.33 50.70L104.33 50.70Q108.20 50.70 109.69 49.70Q111.18 48.71 111.18 47.12L111.18 47.12Q111.18 45.72 110.19 44.92Q109.19 44.13 106.44 43.55L106.44 43.55L99.29 42.08Q93.60 40.91 90.79 38.01Q87.97 35.11 87.97 30.42L87.97 30.42Q87.97 26.32 90.17 23.30Q92.37 20.28 96.36 18.61Q100.34 16.94 105.67 16.94L105.67 16.94Q110.07 16.94 113.94 18.14Q117.81 19.34 120.27 21.45L120.27 21.45L117.22 29.31Q114.88 27.61 111.95 26.70Q109.02 25.79 105.44 25.79L105.44 25.79Q102.04 25.79 100.31 26.81Q98.58 27.84 98.58 29.72L98.58 29.72Q98.58 31.00 99.61 31.91Q100.63 32.82 103.39 33.41L103.39 33.41L110.42 34.81Q116.11 35.93 118.95 38.80Q121.79 41.67 121.79 46.30L121.79 46.30Q121.79 50.29 119.59 53.28Q117.40 56.27 113.47 57.91Q109.54 59.55 104.21 59.55ZM138.85 58.90L128.01 58.90L128.01 17.58L157.02 17.58L157.02 25.85L138.85 25.85L138.85 34.23L155.67 34.23L155.67 42.49L138.85 42.49L138.85 58.90ZM190.72 58.90L162.18 58.90L162.18 17.58L173.02 17.58L173.02 49.94L190.72 49.94L190.72 58.90ZM192.65 38.21L192.65 38.21Q192.65 31.77 195.17 26.99Q197.69 22.21 202.38 19.58Q207.07 16.94 213.46 16.94L213.46 16.94Q219.91 16.94 224.60 19.58Q229.28 22.21 231.83 26.99Q234.38 31.77 234.38 38.21L234.38 38.21Q234.38 44.60 231.83 49.41Q229.28 54.21 224.60 56.88Q219.91 59.55 213.46 59.55L213.46 59.55Q207.07 59.55 202.41 56.88Q197.75 54.21 195.20 49.41Q192.65 44.60 192.65 38.21ZM203.96 38.21L203.96 38.21Q203.96 44.02 206.31 47.27Q208.65 50.52 213.46 50.52L213.46 50.52Q218.27 50.52 220.67 47.27Q223.07 44.02 223.07 38.21L223.07 38.21Q223.07 32.41 220.67 29.19Q218.27 25.96 213.46 25.96L213.46 25.96Q208.65 25.96 206.31 29.16Q203.96 32.35 203.96 38.21ZM260.29 58.90L251.56 58.90L236.79 17.58L247.92 17.58L257.59 47.47L254.90 47.47L265.68 17.58L273.42 17.58L283.15 47.47L280.57 47.47L291.00 17.58L301.43 17.58L286.61 58.90L277.93 58.90L268.55 32.00L269.90 32.00L260.29 58.90Z" transform="translate(0, 0)"></path></g></svg></svg>
                </g>
            </svg>
        